<svg xmlns="http://www.w3.org/2000/svg" width="122" height="122" viewBox="0 0 122 122"><g><g opacity="-.4"><path fill="#090909" d="M61 0c33.69 0 61 27.31 61 61s-27.31 61-61 61S0 94.69 0 61 27.31 0 61 0z"/></g><g opacity="-.68"><path fill="#d9d9d8" d="M60.5 14C86.18 14 107 34.819 107 60.5S86.18 107 60.5 107 14 86.18 14 60.5 34.819 14 60.5 14z"/><path fill="#b9b8b8" d="M60.5 14C86.18 14 107 34.819 107 60.5S86.18 107 60.5 107 14 86.18 14 60.5 34.819 14 60.5 14z"/></g><g><path fill="#d9d9d8" d="M79 61.009l-26 15.01v-30.02z"/><path fill="#ff5a3c" d="M79 61.009l-26 15.01v-30.02z"/></g></g></svg>